<?xml version="1.0" encoding="UTF-8" standalone="no"?><!DOCTYPE svg PUBLIC "-//W3C//DTD SVG 1.1//EN" "http://www.w3.org/Graphics/SVG/1.1/DTD/svg11.dtd"><svg width="100%" height="100%" viewBox="0 0 2200 534" version="1.1" xmlns="http://www.w3.org/2000/svg" xmlns:xlink="http://www.w3.org/1999/xlink" xml:space="preserve" xmlns:serif="http://www.serif.com/" style="fill-rule:evenodd;clip-rule:evenodd;stroke-linejoin:round;stroke-miterlimit:2;"><path id="Gradient" d="M131.732,212.074c44.632,-52.298 41.265,-105.375 26.883,-158.63c36.844,22.896 63.084,53.459 72.648,96.083c20.737,-26.701 46.383,-47.781 82.022,-57.416c-18.572,44.107 -12.485,86.709 13.285,128.111c22.144,24.35 35.65,56.699 35.65,92.178c0,75.665 -61.43,137.095 -137.094,137.095c-75.665,-0 -137.095,-61.43 -137.095,-137.095c0,-39.595 16.822,-75.292 43.701,-100.326Z" style="fill:url(#_Radial1);"/><g id="Text"><path d="M738.013,85.497l-164.07,186.345l-5.976,-5.976l-89.641,101.594l-11.409,-69.54l184.172,-212.423l86.924,0Zm-234.153,0l-0,358.565l-74.973,0l0,-358.565l74.973,0Zm90.728,123.868l147.772,234.697l-85.839,0l-119.521,-192.864l57.588,-41.833Z" style="fill:#fff;fill-rule:nonzero;"/><path d="M830.371,449.495c-22.455,-0 -42.466,-5.614 -60.032,-16.842c-17.566,-11.228 -31.33,-27.345 -41.29,-48.352c-9.96,-21.006 -14.94,-46.178 -14.94,-75.516c0,-30.061 5.252,-55.686 15.755,-76.874c10.504,-21.188 24.72,-37.305 42.648,-48.352c17.928,-11.046 38.12,-16.57 60.575,-16.57c23.905,0 44.006,6.882 60.305,20.645c16.298,13.763 26.801,31.51 31.51,53.241l-7.606,8.693l4.889,-77.146l67.91,0l0,271.64l-69.539,0l-3.26,-82.578l9.779,4.346c-2.173,17.023 -7.787,31.782 -16.842,44.277c-9.054,12.496 -20.463,22.184 -34.226,29.066c-13.763,6.881 -28.975,10.322 -45.636,10.322Zm21.731,-57.044c13.039,-0 24.267,-3.351 33.684,-10.051c9.417,-6.701 16.751,-16.57 22.003,-29.609c5.251,-13.039 7.877,-28.613 7.877,-46.722c0,-17.385 -2.535,-32.144 -7.606,-44.277c-5.07,-12.134 -12.314,-21.46 -21.731,-27.979c-9.417,-6.52 -20.464,-9.779 -33.14,-9.779c-20.283,-0 -36.128,7.153 -47.537,21.459c-11.409,14.307 -17.113,35.223 -17.113,62.749c-0,27.526 5.613,48.443 16.841,62.749c11.228,14.306 26.802,21.46 46.722,21.46Z" style="fill:#fff;fill-rule:nonzero;"/><path d="M1137.32,89.3l0,266.208c0,13.038 3.351,22.546 10.051,28.522c6.7,5.976 15.846,8.964 27.436,8.964c9.417,-0 17.475,-1.358 24.176,-4.075c6.7,-2.716 12.767,-6.429 18.2,-11.137l11.952,49.438c-8.693,6.882 -19.558,12.315 -32.597,16.299c-13.039,3.984 -26.802,5.976 -41.289,5.976c-18.11,-0 -34.137,-2.716 -48.081,-8.149c-13.944,-5.433 -24.809,-14.126 -32.596,-26.078c-7.788,-11.952 -11.681,-27.888 -11.681,-47.808l-0,-257.515l74.429,-20.645Zm86.925,83.122l0,55.415l-211.336,-0l0,-55.415l211.336,0Z" style="fill:#fff;fill-rule:nonzero;"/><path d="M1365.5,166.989c27.526,0 51.702,5.614 72.528,16.842c20.826,11.228 37.124,27.345 48.895,48.352c11.771,21.007 17.657,46.36 17.657,76.059c-0,29.337 -5.886,54.6 -17.657,75.788c-11.771,21.188 -28.069,37.395 -48.895,48.623c-20.826,11.228 -45.002,16.842 -72.528,16.842c-27.164,-0 -51.249,-5.614 -72.256,-16.842c-21.007,-11.228 -37.396,-27.435 -49.167,-48.623c-11.771,-21.188 -17.657,-46.451 -17.657,-75.788c0,-29.699 5.886,-55.052 17.657,-76.059c11.771,-21.007 28.16,-37.124 49.167,-48.352c21.007,-11.228 45.092,-16.842 72.256,-16.842Zm-0,55.415c-13.763,-0 -25.444,3.169 -35.042,9.507c-9.598,6.339 -16.932,15.846 -22.002,28.522c-5.071,12.677 -7.606,28.613 -7.606,47.809c-0,19.196 2.535,35.132 7.606,47.809c5.07,12.676 12.404,22.184 22.002,28.522c9.598,6.338 21.279,9.507 35.042,9.507c13.401,0 24.9,-3.169 34.498,-9.507c9.598,-6.338 16.933,-15.846 22.003,-28.522c5.071,-12.677 7.606,-28.613 7.606,-47.809c0,-19.196 -2.535,-35.132 -7.606,-47.809c-5.07,-12.676 -12.405,-22.183 -22.003,-28.522c-9.598,-6.338 -21.097,-9.507 -34.498,-9.507Z" style="fill:#fff;fill-rule:nonzero;"/><path d="M1540.44,444.062l0,-271.64l64.651,0l4.889,53.242c7.244,-18.834 17.838,-33.322 31.782,-43.463c13.944,-10.141 31.42,-15.212 52.426,-15.212c6.158,0 11.772,0.544 16.842,1.63c5.071,1.087 9.236,2.535 12.496,4.346l-8.693,62.478c-3.622,-1.449 -8.059,-2.536 -13.31,-3.26c-5.252,-0.724 -12.043,-1.087 -20.373,-1.087c-10.866,0 -21.369,2.626 -31.511,7.878c-10.141,5.252 -18.471,13.22 -24.99,23.904c-6.52,10.685 -9.779,24.176 -9.779,40.475l-0,140.709l-74.43,0Z" style="fill:#fff;fill-rule:nonzero;"/><path d="M1772.42,133.306c-15.574,-0 -27.164,-3.35 -34.77,-10.051c-7.606,-6.7 -11.409,-16.57 -11.409,-29.609c-0,-13.4 3.803,-23.451 11.409,-30.152c7.606,-6.7 19.196,-10.05 34.77,-10.05c15.574,-0 27.164,3.35 34.77,10.05c7.606,6.701 11.409,16.752 11.409,30.152c-0,13.039 -3.803,22.909 -11.409,29.609c-7.606,6.701 -19.196,10.051 -34.77,10.051Zm36.943,39.116l-0,271.64l-74.43,0l0,-271.64l74.43,0Z" style="fill:#fff;fill-rule:nonzero;"/><path d="M1852.28,444.062l-0,-271.64l66.823,0l4.347,81.492l-9.236,-8.692c4.346,-17.748 11.228,-32.326 20.645,-43.734c9.416,-11.409 20.916,-20.011 34.498,-25.806c13.582,-5.795 28.522,-8.693 44.82,-8.693c18.834,0 35.585,3.622 50.254,10.866c14.668,7.244 26.258,18.2 34.77,32.868c8.511,14.669 12.767,33.05 12.767,55.143l-0,178.196l-74.43,0l0,-157.008c0,-23.18 -4.527,-39.207 -13.582,-48.08c-9.054,-8.874 -20.825,-13.31 -35.313,-13.31c-10.141,-0 -20.011,2.444 -29.608,7.334c-9.598,4.889 -17.385,12.767 -23.362,23.633c-5.976,10.865 -8.964,25.353 -8.964,43.462l0,143.969l-74.429,0Z" style="fill:#fff;fill-rule:nonzero;"/></g><defs><radialGradient id="_Radial1" cx="0" cy="0" r="1" gradientUnits="userSpaceOnUse" gradientTransform="matrix(193.068,0,0,278.876,225.126,380.186)"><stop offset="0" style="stop-color:#e261d8;stop-opacity:1"/><stop offset="1" style="stop-color:#782fd2;stop-opacity:1"/></radialGradient></defs></svg>