<?xml version="1.0" standalone="no"?>
<!DOCTYPE svg PUBLIC "-//W3C//DTD SVG 20010904//EN"
 "http://www.w3.org/TR/2001/REC-SVG-20010904/DTD/svg10.dtd">
<svg version="1.0" xmlns="http://www.w3.org/2000/svg"
 width="192.000000pt" height="192.000000pt" viewBox="0 0 192.000000 192.000000"
 preserveAspectRatio="xMidYMid meet">
<metadata>
Created by potrace 1.14, written by Peter Selinger 2001-2017
</metadata>
<g transform="translate(0.000000,192.000000) scale(0.100000,-0.100000)"
fill="#000000" stroke="none">
<path d="M920 1740 c0 -17 -7 -20 -40 -20 -33 0 -40 -3 -40 -20 0 -17 -7 -20
-40 -20 -33 0 -40 -3 -40 -20 0 -13 -7 -20 -20 -20 -13 0 -20 -7 -20 -20 0
-13 -7 -20 -20 -20 -13 0 -20 -7 -20 -20 0 -13 -7 -20 -20 -20 -17 0 -20 -7
-20 -40 0 -33 -3 -40 -20 -40 -19 0 -20 -7 -20 -120 l0 -120 40 0 c33 0 40 3
40 20 0 13 7 20 20 20 17 0 20 -7 20 -40 0 -33 3 -40 20 -40 17 0 20 -7 20
-40 0 -33 -3 -40 -20 -40 -13 0 -20 -7 -20 -20 0 -13 -7 -20 -20 -20 -13 0
-20 -7 -20 -20 0 -13 -7 -20 -20 -20 -18 0 -20 -7 -20 -60 0 -53 -2 -60 -20
-60 -13 0 -20 7 -20 20 0 19 -7 20 -100 20 l-100 0 0 -80 c0 -73 -2 -80 -20
-80 -18 0 -20 7 -20 80 l0 80 -60 0 -60 0 0 -340 c0 -333 0 -340 -20 -340 -20
0 -20 7 -20 340 l0 340 -60 0 -60 0 0 -380 c0 -373 0 -380 20 -380 13 0 20 -7
20 -20 0 -13 7 -20 20 -20 13 0 20 -7 20 -20 0 -13 7 -20 20 -20 13 0 20 -7
20 -20 0 -20 7 -20 760 -20 753 0 760 0 760 20 0 13 7 20 20 20 13 0 20 7 20
20 0 13 7 20 20 20 13 0 20 7 20 20 0 13 7 20 20 20 20 0 20 7 20 380 l0 380
-60 0 -60 0 0 -340 c0 -333 0 -340 -20 -340 -20 0 -20 7 -20 340 l0 340 -60 0
-60 0 0 -80 c0 -73 -2 -80 -20 -80 -18 0 -20 7 -20 80 l0 80 -100 0 c-93 0
-100 -1 -100 -20 0 -13 -7 -20 -20 -20 -18 0 -20 7 -20 60 0 53 -2 60 -20 60
-13 0 -20 7 -20 20 0 13 -7 20 -20 20 -13 0 -20 7 -20 20 0 13 -7 20 -20 20
-17 0 -20 7 -20 40 0 33 3 40 20 40 17 0 20 7 20 40 0 33 3 40 20 40 13 0 20
-7 20 -20 0 -17 7 -20 40 -20 l40 0 0 120 c0 113 -1 120 -20 120 -17 0 -20 7
-20 40 0 33 -3 40 -20 40 -13 0 -20 7 -20 20 0 13 -7 20 -20 20 -13 0 -20 7
-20 20 0 13 -7 20 -20 20 -13 0 -20 7 -20 20 0 17 -7 20 -40 20 -33 0 -40 3
-40 20 0 17 -7 20 -40 20 -33 0 -40 3 -40 20 0 17 -7 20 -40 20 -33 0 -40 -3
-40 -20z m-480 -980 c0 -33 3 -40 20 -40 17 0 20 -7 20 -40 0 -33 3 -40 20
-40 13 0 20 -7 20 -20 0 -13 7 -20 20 -20 13 0 20 -7 20 -20 0 -13 7 -20 20
-20 13 0 20 -7 20 -20 0 -13 7 -20 20 -20 13 0 20 -7 20 -20 0 -17 7 -20 40
-20 33 0 40 -3 40 -20 0 -13 7 -20 20 -20 13 0 20 -7 20 -20 0 -13 -7 -20 -20
-20 -13 0 -20 7 -20 20 0 17 -7 20 -40 20 -33 0 -40 3 -40 20 0 13 -7 20 -20
20 -13 0 -20 7 -20 20 0 13 -7 20 -20 20 -13 0 -20 7 -20 20 0 13 -7 20 -20
20 -13 0 -20 7 -20 20 0 13 -7 20 -20 20 -13 0 -20 7 -20 20 0 13 -7 20 -20
20 -17 0 -20 7 -20 40 0 33 -3 40 -20 40 -17 0 -20 7 -20 40 0 33 3 40 20 40
17 0 20 -7 20 -40z m1080 0 c0 -33 -3 -40 -20 -40 -17 0 -20 -7 -20 -40 0 -33
-3 -40 -20 -40 -13 0 -20 -7 -20 -20 0 -13 -7 -20 -20 -20 -13 0 -20 -7 -20
-20 0 -13 -7 -20 -20 -20 -13 0 -20 -7 -20 -20 0 -13 -7 -20 -20 -20 -13 0
-20 -7 -20 -20 0 -13 -7 -20 -20 -20 -13 0 -20 -7 -20 -20 0 -17 -7 -20 -40
-20 -33 0 -40 -3 -40 -20 0 -13 -7 -20 -20 -20 -13 0 -20 7 -20 20 0 13 7 20
20 20 13 0 20 7 20 20 0 17 7 20 40 20 33 0 40 3 40 20 0 13 7 20 20 20 13 0
20 7 20 20 0 13 7 20 20 20 13 0 20 7 20 20 0 13 7 20 20 20 13 0 20 7 20 20
0 13 7 20 20 20 17 0 20 7 20 40 0 33 3 40 20 40 17 0 20 7 20 40 0 33 3 40
20 40 17 0 20 -7 20 -40z m-760 -20 c0 -13 -7 -20 -20 -20 -13 0 -20 -7 -20
-20 0 -13 7 -20 20 -20 13 0 20 -7 20 -20 0 -17 -7 -20 -40 -20 -33 0 -40 3
-40 20 0 13 -7 20 -20 20 -17 0 -20 7 -20 40 l0 40 60 0 c53 0 60 -2 60 -20z
m520 -20 c0 -33 -3 -40 -20 -40 -13 0 -20 -7 -20 -20 0 -17 -7 -20 -40 -20
-33 0 -40 3 -40 20 0 13 7 20 20 20 13 0 20 7 20 20 0 13 -7 20 -20 20 -13 0
-20 7 -20 20 0 18 7 20 60 20 l60 0 0 -40z m-1000 -460 c0 -19 7 -20 260 -20
253 0 260 1 260 20 0 17 7 20 40 20 33 0 40 -3 40 -20 0 -18 7 -20 80 -20 73
0 80 2 80 20 0 17 7 20 40 20 33 0 40 -3 40 -20 0 -19 7 -20 260 -20 253 0
260 1 260 20 0 13 7 20 20 20 13 0 20 -7 20 -20 0 -13 -7 -20 -20 -20 -13 0
-20 -7 -20 -20 0 -19 -7 -20 -220 -20 -213 0 -220 -1 -220 -20 0 -19 -7 -20
-240 -20 -233 0 -240 1 -240 20 0 19 -7 20 -220 20 -213 0 -220 1 -220 20 0
13 -7 20 -20 20 -13 0 -20 7 -20 20 0 13 7 20 20 20 13 0 20 -7 20 -20z"/>
</g>
</svg>
